<svg width="271" height="56" viewBox="0 0 271 56" fill="none" xmlns="http://www.w3.org/2000/svg">
<path d="M223.207 24.8011C224.718 15.1011 233.107 7.67814 243.23 7.67814C253.354 7.67814 261.742 15.1011 263.253 24.8011H223.207ZM263.253 31.0891H267.859H270.11C270.23 30.0571 270.298 29.0091 270.298 27.9451C270.298 12.9961 258.179 0.878136 243.23 0.878136C228.281 0.878136 216.162 12.9961 216.162 27.9451C216.162 42.8941 228.281 55.0131 243.23 55.0131C254.259 55.0131 263.741 48.4131 267.959 38.9501H260.234C256.622 44.5201 250.362 48.2121 243.23 48.2121C233.107 48.2121 224.718 40.7891 223.207 31.0891H243.834H263.253ZM140.035 47.3211H154.122V53.7111H140.035H133.645H119.559V47.3211H133.645V10.6691C133.645 9.50914 132.705 8.56914 131.545 8.56914H119.559V2.17914H131.545C136.234 2.17914 140.035 5.98014 140.035 10.6691V47.3211ZM204.421 20.5961V53.7111H198.031V20.5961C198.031 13.2351 192.063 7.26814 184.702 7.26814C177.342 7.26814 171.374 13.2351 171.374 20.5961V53.7111H164.984V20.5961C164.984 9.70614 173.812 0.878136 184.702 0.878136C195.593 0.878136 204.421 9.70614 204.421 20.5961ZM100.624 2.17914H107.014V35.2941C107.014 46.1851 98.1862 55.0131 87.2962 55.0131C76.4062 55.0131 67.5782 46.1851 67.5782 35.2941V2.17914H73.9682V35.2941C73.9682 42.6551 79.9352 48.6231 87.2962 48.6231C94.6572 48.6231 100.624 42.6551 100.624 35.2941V2.17914ZM45.3542 40.1531L34.3002 29.0991L16.5612 11.3601C19.9772 8.84114 24.1982 7.35014 28.7682 7.35014C40.1432 7.35014 49.3642 16.5711 49.3642 27.9451C49.3642 32.5151 47.8732 36.7361 45.3542 40.1531ZM28.7682 48.5401C17.3942 48.5401 8.17322 39.3201 8.17322 27.9451C8.17322 23.3751 9.66421 19.1541 12.1832 15.7381L40.9762 44.5301C37.5602 47.0491 33.3392 48.5401 28.7682 48.5401ZM52.4322 47.2311L49.9672 44.7661C53.6382 40.1461 55.8362 34.3041 55.8362 27.9451C55.8362 12.9961 43.7182 0.878136 28.7682 0.878136C22.4102 0.878136 16.5672 3.07614 11.9482 6.74714L15.5502 10.3491L5.20122 0.000137329L0.824219 4.37814L7.57022 11.1241C3.89922 15.7441 1.70122 21.5861 1.70122 27.9451C1.70122 42.8941 13.8192 55.0131 28.7682 55.0131C35.1272 55.0131 40.9692 52.8141 45.5892 49.1441L52.3352 55.8901L56.7132 51.5121L52.4322 47.2311Z" fill="#1B1D22"/>
</svg>
