<?xml version="1.0" standalone="no"?>
<!DOCTYPE svg PUBLIC "-//W3C//DTD SVG 20010904//EN"
 "http://www.w3.org/TR/2001/REC-SVG-20010904/DTD/svg10.dtd">
<svg version="1.0" xmlns="http://www.w3.org/2000/svg"
 width="512.000000pt" height="148.000000pt" viewBox="0 0 512.000000 148.000000"
 preserveAspectRatio="xMidYMid meet">

<g transform="translate(0.000000,148.000000) scale(0.100000,-0.100000)"
fill="#000000" stroke="none">
<path d="M650 1470 c-150 -18 -315 -98 -425 -206 -362 -357 -259 -965 200
-1180 122 -57 179 -69 315 -68 209 1 365 67 516 219 66 66 90 99 128 176 61
125 79 200 79 329 1 128 -19 216 -74 326 -137 278 -433 440 -739 404z m423
-272 c27 -11 42 -41 35 -75 -6 -31 -37 -27 -70 11 -71 80 -111 37 -172 -184
l-24 -88 99 -13 99 -12 -6 -26 c-4 -14 -10 -29 -13 -33 -6 -7 -65 0 -163 17
-25 4 -27 1 -37 -47 -6 -28 -10 -52 -9 -54 2 -1 46 -9 98 -16 l95 -14 -2 -28
c-1 -16 -4 -30 -7 -33 -2 -2 -48 2 -101 10 -69 10 -98 11 -100 3 -1 -6 -19
-63 -39 -126 -45 -146 -86 -216 -145 -247 -58 -30 -137 -32 -175 -2 -27 21
-34 57 -15 76 16 16 39 5 76 -34 31 -33 32 -34 61 -19 41 21 66 78 103 235 23
100 28 135 19 141 -6 4 -48 12 -92 19 -45 6 -83 13 -85 15 -2 2 -1 16 3 31 7
27 8 27 65 21 32 -3 76 -8 97 -12 l40 -6 10 48 c7 33 7 51 0 55 -5 4 -50 12
-99 19 l-89 12 0 35 c0 32 2 34 28 29 55 -11 184 -28 186 -24 2 2 13 37 26 78
12 41 32 95 45 120 28 55 93 117 132 126 16 3 33 7 38 9 13 5 53 -3 88 -17z"/>
<path d="M1880 750 l0 -330 55 0 55 0 0 145 0 145 163 2 162 3 0 45 0 45 -162
3 -163 2 0 85 0 85 173 2 172 3 0 45 0 45 -227 3 -228 2 0 -330z"/>
<path d="M2410 1026 l0 -56 56 0 55 0 -3 53 -3 52 -52 3 -53 3 0 -55z"/>
<path d="M2640 750 l0 -330 50 0 50 0 0 330 0 330 -50 0 -50 0 0 -330z"/>
<path d="M4477 1073 c-4 -3 -7 -28 -7 -55 l0 -48 55 0 55 0 0 55 0 55 -48 0
c-27 0 -52 -3 -55 -7z"/>
<path d="M2997 906 c-166 -60 -214 -294 -87 -425 102 -105 307 -84 370 38 11
22 20 43 20 46 0 3 -21 5 -48 5 -39 0 -52 -5 -75 -30 -35 -37 -87 -48 -141
-29 -42 15 -86 66 -86 100 0 17 13 19 178 21 l177 3 3 28 c2 15 -4 53 -13 85
-38 131 -173 202 -298 158z m142 -91 c26 -13 61 -67 61 -94 0 -7 -41 -11 -125
-11 -137 0 -140 2 -110 60 29 55 113 77 174 45z"/>
<path d="M3548 910 c-131 -39 -198 -186 -154 -334 39 -128 158 -190 290 -152
67 20 125 72 143 129 l11 37 -51 0 c-48 0 -53 -2 -65 -29 -24 -53 -104 -76
-163 -45 -91 47 -90 252 2 299 59 31 146 1 165 -57 7 -24 104 -27 104 -3 0 49
-84 137 -147 154 -44 13 -96 13 -135 1z"/>
<path d="M4053 904 c-132 -47 -192 -227 -123 -370 59 -120 234 -159 351 -78
75 52 112 168 89 279 -10 50 -20 66 -64 110 -74 73 -157 93 -253 59z m162
-107 c99 -99 49 -297 -74 -297 -70 0 -117 51 -127 137 -13 106 45 193 127 193
33 0 47 -6 74 -33z"/>
<path d="M4890 909 c-14 -5 -37 -22 -52 -36 l-28 -27 0 32 0 32 -55 0 -55 0 0
-245 0 -245 55 0 55 0 0 155 c0 168 9 209 51 239 24 16 74 21 103 10 34 -13
41 -48 46 -224 l5 -175 53 -3 54 -3 -4 200 c-3 218 -5 226 -71 275 -30 22
-119 31 -157 15z"/>
<path d="M2410 664 l0 -245 53 3 52 3 3 243 2 242 -55 0 -55 0 0 -246z"/>
<path d="M4474 897 c-2 -7 -3 -116 -2 -242 l3 -230 53 -3 52 -3 0 245 0 246
-50 0 c-32 0 -52 -5 -56 -13z"/>
</g>
</svg>
