<?xml version="1.0" standalone="no"?>
<!DOCTYPE svg PUBLIC "-//W3C//DTD SVG 20010904//EN"
 "http://www.w3.org/TR/2001/REC-SVG-20010904/DTD/svg10.dtd">
<svg version="1.0" xmlns="http://www.w3.org/2000/svg"
 width="2400.000000pt" height="904.000000pt" viewBox="0 0 2400.000000 904.000000"
 preserveAspectRatio="xMidYMid meet">

<g transform="translate(0.000000,904.000000) scale(0.100000,-0.100000)"
fill="#000000" stroke="none">
<path d="M4276 9029 c-152 -9 -264 -21 -431 -46 -127 -20 -135 -16 130 -59
1662 -267 2798 -1192 3135 -2554 194 -783 98 -1661 -265 -2416 -318 -662 -794
-1166 -1370 -1449 -312 -153 -602 -231 -938 -253 l-112 -7 85 -6 c165 -13 684
-9 877 6 1668 135 2780 889 3191 2165 142 439 209 984 184 1500 l-9 195 -54
130 c-417 1015 -1203 1855 -2188 2339 -558 274 -1126 421 -1756 456 -209 11
-273 11 -479 -1z"/>
<path d="M2960 8721 c-107 -6 -122 -9 -215 -50 -1006 -438 -1796 -1186 -2274
-2151 -381 -770 -529 -1593 -440 -2453 7 -64 14 -116 16 -113 2 2 20 73 39
157 220 947 605 1693 1163 2249 509 506 1136 814 1871 917 180 25 661 25 850
0 569 -76 1086 -266 1530 -562 201 -134 318 -230 495 -409 242 -242 390 -449
531 -741 162 -335 236 -658 238 -1039 1 -189 3 -187 35 39 37 262 46 410 45
760 0 456 -32 728 -128 1100 -358 1386 -1413 2170 -3071 2284 -199 14 -542 20
-685 12z"/>
<path d="M3430 6823 c-129 -6 -387 -35 -524 -59 -668 -117 -1213 -387 -1631
-808 -291 -292 -493 -610 -661 -1038 -193 -493 -290 -1049 -310 -1783 l-7
-240 57 -133 c317 -744 813 -1374 1468 -1864 387 -289 820 -512 1313 -676 394
-132 911 -212 1380 -215 184 -1 448 11 420 19 -5 1 -87 23 -181 48 -612 164
-1161 413 -1614 730 -252 177 -548 451 -724 671 -394 494 -624 1058 -686 1684
-15 150 -12 504 5 665 71 673 329 1300 754 1836 94 118 348 374 461 464 304
243 681 433 1020 515 233 56 322 66 592 66 136 0 235 3 220 7 -56 16 -382 67
-517 82 -276 31 -575 41 -835 29z"/>
<path d="M18980 4625 l0 -2015 215 0 215 0 0 2015 0 2015 -215 0 -215 0 0
-2015z"/>
<path d="M21400 6260 l0 -280 230 0 230 0 0 280 0 280 -230 0 -230 0 0 -280z"/>
<path d="M22910 6005 l0 -515 -295 0 -295 0 0 -190 0 -190 295 0 295 0 0
-1250 0 -1250 210 0 210 0 0 1250 0 1250 335 0 335 0 0 190 0 190 -335 0 -335
0 0 515 0 515 -210 0 -210 0 0 -515z"/>
<path d="M4362 5780 c-378 -53 -706 -262 -907 -576 -199 -311 -250 -718 -134
-1069 65 -196 158 -345 308 -496 247 -246 543 -369 891 -369 265 0 490 68 709
214 467 311 668 901 490 1442 -140 428 -502 746 -954 839 -94 19 -313 28 -403
15z"/>
<path d="M11801 5529 c-128 -11 -234 -40 -345 -92 -261 -124 -452 -318 -550
-556 -19 -45 -36 -85 -40 -88 -3 -4 -6 152 -6 345 l0 352 -210 0 -210 0 0
-1440 0 -1440 209 0 209 0 5 713 c3 596 7 727 20 802 51 285 169 524 348 704
172 173 365 260 621 277 l98 7 0 213 0 214 -27 -1 c-16 -1 -70 -6 -122 -10z"/>
<path d="M13495 5530 c-359 -29 -649 -162 -887 -408 -191 -197 -311 -433 -370
-725 -20 -98 -23 -142 -23 -347 1 -207 3 -248 23 -340 65 -296 179 -514 378
-720 201 -208 419 -329 704 -392 93 -20 132 -22 350 -22 266 0 338 9 517 69
299 101 571 348 729 663 30 59 54 113 54 120 0 9 -53 12 -232 12 l-233 -1 -34
-59 c-77 -134 -210 -260 -348 -329 -261 -130 -647 -129 -918 3 -209 102 -386
290 -476 505 -34 82 -79 248 -79 292 l0 29 1205 0 1205 0 0 153 c0 369 -75
642 -247 901 -206 309 -523 515 -888 575 -137 23 -300 31 -430 21z m280 -391
c241 -29 465 -150 614 -331 100 -122 190 -316 219 -476 l9 -52 -984 0 -983 0
5 23 c2 12 11 52 20 89 66 297 283 563 552 677 164 70 352 94 548 70z"/>
<path d="M16890 5530 c-228 -18 -426 -84 -597 -197 -74 -49 -197 -165 -254
-242 l-49 -64 0 232 0 231 -215 0 -215 0 0 -2010 0 -2010 215 0 215 0 2 802 3
801 43 -57 c144 -190 355 -335 583 -400 243 -69 592 -62 848 19 404 128 716
448 868 890 80 236 100 589 47 867 -88 466 -406 873 -814 1041 -193 80 -443
116 -680 97z m210 -390 c422 -52 741 -339 850 -767 50 -195 48 -461 -5 -664
-33 -127 -118 -294 -200 -396 -207 -258 -537 -390 -885 -354 -314 32 -537 163
-704 414 -132 198 -186 395 -186 676 0 313 74 547 239 753 208 260 530 382
891 338z"/>
<path d="M21410 4050 l0 -1440 215 0 215 0 0 1440 0 1440 -215 0 -215 0 0
-1440z"/>
<path d="M8981 4777 c-297 -1062 -822 -1890 -1532 -2415 -439 -324 -950 -526
-1517 -599 -169 -21 -580 -24 -752 -4 -789 89 -1519 425 -2059 946 -455 439
-726 946 -818 1530 -13 82 -18 171 -18 348 0 210 -1 231 -12 180 -96 -469
-119 -1099 -57 -1588 93 -746 391 -1392 855 -1856 626 -626 1601 -975 2809
-1006 l225 -5 101 40 c1326 532 2328 1666 2688 3042 79 302 121 584 137 915
10 212 5 537 -9 576 -5 13 -18 -20 -41 -104z"/>
<path d="M2291 4854 c0 -11 3 -14 6 -6 3 7 2 16 -1 19 -3 4 -6 -2 -5 -13z"/>
<path d="M19945 4117 c-3 -7 -4 -125 -3 -262 l3 -250 263 -3 262 -2 0 -260 0
-260 260 0 260 0 0 260 0 260 -260 0 -260 0 -2 263 -3 262 -258 3 c-202 2
-259 0 -262 -11z"/>
<path d="M19940 2810 l0 -260 265 0 265 0 0 260 0 260 -265 0 -265 0 0 -260z"/>
</g>
</svg>
